<svg xmlns="http://www.w3.org/2000/svg" xmlns:xlink="http://www.w3.org/1999/xlink" id="Слой_1" viewBox="0 0 478.5 98.9">
  <style>
    .st1{fill:#fff}.st2{fill:none;stroke:#fff;stroke-width:17.64;stroke-miterlimit:10}.st3{fill:#fefefe}
  </style>
  <symbol id="symbol_logo" viewBox="-8203.7 -1682.5 16407.3 3364.9">
    <linearGradient id="logo_gradient_rus" x1="-5578.474" x2="-7310.944" y1="844.11" y2="2988.25" gradientTransform="translate(487.24 -2374.48)" gradientUnits="userSpaceOnUse">
      <stop offset="0" stop-color="#fff"/>
      <stop offset=".51" stop-color="#fff"/>
      <stop offset="1" stop-color="#fff"/>
      <stop offset="1" stop-color="#fff"/>
    </linearGradient>
    <path fill="url(#logo_gradient_rus)" d="M-6215.2-1682.5c-357 7-685.8 64.1-982.5 178.3-297.6 114.5-562.5 286.3-790.6 522.3-14.5 15-14 39 1.1 53.5s39 14 53.6-1.1c220.2-227.9 475.9-393.7 763-504.2 288.2-110.9 608.5-166.4 956.9-173.2 20.9-.5 37.5-17.7 37.1-38.6-.4-20.6-17.3-37.1-37.9-37.1-.3.1-.5.1-.7.1zm-269.3 173.5c-124.8 3.1-243.7 18.2-357.4 42.6-113.7 24.4-222.7 58.3-327.7 99.2-182 70.9-356.3 165-523.2 281.2-166.6 116-326.1 254.3-478.9 413.6-14.5 15-14 39 1.1 53.5s39 14 53.5-1.1c149.1-155.5 304.9-290.4 467.6-403.8 162.4-113.1 331.4-204.4 507.2-272.9 101.1-39.4 206.2-72 316.1-95.7 109.9-23.6 224.1-38.1 343.5-41.1 131-3.3 262.2-3.7 394 1.9 131.2 5.6 262.8 17.2 394.8 37.8 85.9 13.4 169.4 25.4 249 35.2 82 10.1 163.5 18.4 244.3 24.2 20.9 1.5 39-14.3 40.5-35.1 1.5-20.9-14.3-39-35.2-40.5-78.5-5.6-158.8-13.8-240.5-23.8-84.1-10.3-166.1-22.1-246.6-34.6-135.4-21.2-269.7-33-403.4-38.7-72.3-3.1-144.5-4.4-216.6-4.4-60.8.1-121.4 1-182.1 2.5zm19.6 151.8c-106.9 1.8-213.8 10.4-320.5 31-307.1 59.2-554.9 156.4-778.7 294.5-223 137.7-421.1 315.5-629.3 536.4-14.3 15.2-13.6 39.2 1.6 53.6 15.2 14.3 39.2 13.6 53.6-1.6 204.1-216.5 397.5-390.3 613.9-523.9 215.7-133.2 455.4-227 753.1-284.4 102.7-19.8 205.3-28 307.5-29.8 102.8-1.8 206.5 2.9 310.1 8.9 173.9 10.1 344.3 34 514.6 57.9 245.5 34.4 490.6 68.7 749.8 62.7 20.9-.4 37.5-17.7 37.1-38.6-.4-20.8-17.7-37.5-38.6-37-252.6 5.8-495.1-28.2-737.9-62.1-171.8-24.1-343.6-48.1-520.8-58.5-88.7-5.2-177.9-9.3-268-9.3-15.8-.3-31.6-.1-47.5.2zm-107.6 160c-132.4 12.4-264.3 35.1-396 63.9-243.4 53.3-462.8 158.9-663.2 295-199.2 135.3-379.2 300.4-545.3 473.9-14.5 15.1-14.1 39 1 53.5s39 14 53.5-1.1c163.2-170.5 339.4-332.2 533.2-463.8 192.7-130.8 403.3-232.3 636.8-283.4 130.1-28.5 259.3-50.8 386.8-62.8 127.6-11.9 254.6-13.6 381-1 85.5 8.6 170.9 17.7 255.5 28.7 83.8 10.9 167.9 23.9 252.6 40.5 170.4 33.3 336.8 53.1 504.1 62.7 166.4 9.6 333.6 9.1 506.4 2.2 20.9-.8 37.2-18.4 36.3-39.3-.8-20.9-18.4-37.2-39.3-36.4-170.1 6.9-335 7.3-499.3-2.1-163.4-9.4-326.4-28.8-493.8-61.5-84.3-16.5-170.4-29.7-257.3-41.1-86.1-11.2-172.1-20.4-257.9-29-62-6.3-124.2-9.1-186.5-9.1-69.3.2-138.9 3.7-208.6 10.2zm-78.3 163.8c-78.4 8.5-154.9 20.4-230.4 33.8-275.8 48.9-497.1 143-697.4 272.3-198.9 128.3-376.2 290.7-565.5 477.3-14.9 14.7-15.1 38.6-.4 53.5 14.6 14.9 38.6 15.1 53.5.4 186-183.4 359.9-342.8 553.4-467.6 192.2-124 404.6-214.4 669.5-261.3 75.3-13.3 150.5-25.1 225.4-33.2 75.6-8.2 151.7-12.8 228.3-11.9 91.2 1.1 182.3 6.4 273.3 15.7 90.7 9.3 181.3 22.6 272 39.9 198.9 37.8 438.5 75.5 677.9 91.6 241 16.2 482.3 10.6 682.8-38.5 20.3-4.9 32.8-25.4 27.9-45.7-4.9-20.3-25.4-32.8-45.7-27.9-191.9 47.1-425.5 52.3-659.9 36.5-236.1-15.9-472.6-53.1-669-90.4-92.6-17.6-185.2-31.3-278.2-40.8-92.6-9.5-185.9-14.9-280.1-16.1-7-.1-14-.1-21-.1-73.5.2-145.4 4.8-216.4 12.5zm105.4 145.8c-313.8 2.2-594.7 79.9-850.4 211.5-254.5 131-483.6 315.1-695.2 531.1-14.6 14.9-14.5 38.9.5 53.5 14.9 14.7 38.9 14.5 53.6-.4 206.3-210.6 429.2-389.9 675.9-516.9 245.6-126.4 515.2-201 816-203.1 126.8-.9 251.8 2.5 374.6 13.2 121.7 10.5 239.7 28 352.9 55.4 235.6 56.9 486.1 90.8 736.2 93.2 230.3 2.2 460.1-22.3 677.5-80.1 20.3-5.3 32.3-26 27-46.3-5.3-20.3-26-32.3-46.3-27-211 56-434.1 79.8-657.7 77.7-243.9-2.3-488.5-35.4-719-91.1-118.2-28.5-239.8-46.7-364.1-57.5-110.6-9.6-224.7-13.3-341.5-13.3-13.3 0-26.6.1-40 .1zm-808.8 329.1c-235.8 114.8-446.1 284.4-671.6 498.3-15.2 14.4-15.8 38.4-1.3 53.5 14.4 15.1 38.4 15.7 53.5 1.3 220.1-208.8 424.8-373.9 652.7-484.9 226.6-110.3 477.3-167.4 791-160.9 112.6 2.3 222.3 8.1 330.3 18.4 107.3 10.2 213.4 25 319.5 45.3 61 11.7 121.1 25.7 180.7 39.4 120.9 28 239.4 55.5 357.1 62.9 179.7 11.3 375.5 11.2 566.4-12.3 158.9-19.6 314.8-55.5 456.2-114.5 19.3-8 28.5-30.2 20.5-49.5s-30.2-28.5-49.5-20.4c-134.4 56-283.6 90.2-436.3 109.1-186.2 23-377.2 23.1-552.5 12-111.6-7-227.1-33.8-345-61.1-60.6-14.1-121.8-28.3-183.4-40-107.6-20.6-216.1-35.7-326.6-46.2-109.8-10.4-221.3-16.3-336-18.7-16.7-.3-33.3-.5-49.6-.5-304-.1-551.1 59.3-776.1 168.8zm38.3 135.8c-216.4 106.5-411.7 258.9-628 435.5-16.3 13.2-18.7 37-5.5 53.2 13.2 16.2 37 18.7 53.2 5.5 212.6-173.5 404.2-323.2 613.8-426.3 207.6-102.1 434.3-159.1 719.9-149.2 129.3 4.5 258 14.6 385.8 31.3 127.3 16.6 253.8 39.9 379.2 70.8 110.3 27.2 220.5 50.2 331.4 66.3 111.1 16 223.4 25.1 338 24.5 140.4-.8 321.8-18.8 495.1-53.7 148-29.8 290.5-72.3 397.9-127.2 18.6-9.5 26-32.3 16.5-50.9s-32.3-26-50.9-16.4c-100.8 51.5-236.6 91.8-378.3 120.4-168.5 34-344.5 51.4-480.5 52.3-110 .6-218.7-8.2-327-23.9-108.5-15.7-216.2-38.2-324-64.8-127.6-31.5-257-55.3-387.5-72.3-130.1-17-261.4-27.3-393.2-31.9-22.5-.8-44.6-1.2-66.4-1.2-268.7 0-487.6 58.7-689.5 158zm3103.8-17.2c-150.3 73.1-308.1 129.9-474 168.3-166.5 38.6-341.2 59.1-524.6 59.7-114.4.3-231.5-14-351-37.4-121-23.7-243.1-56.3-367.1-92.4-103.8-30.2-207.9-48-311.9-59.5-102.8-11.4-206.2-16.4-309.1-20.9-299-13.2-529.5 34-740.5 130.8-209.5 96.2-398.1 240.6-615.3 423.1-16 13.4-18.1 37.3-4.6 53.2 13.4 16 37.3 18 53.2 4.6 212.5-178.5 396.4-319.5 598.1-412.1 200.2-91.9 419.8-136.7 705.8-124.1 100.9 4.4 202.4 9.5 304.1 20.6 100.4 11.1 200.5 28.3 299.1 56.9 127 37 251.7 70.3 373.6 94.2 123.3 24.2 245 39 365.5 38.6 189.7-.6 370-21.7 541.5-61.5 172-39.9 335.3-98.5 490.3-173.9 18.8-9.2 26.7-31.9 17.5-50.7-6.6-13.5-20.1-21.3-34.1-21.3-5.5 0-11.2 1.2-16.5 3.8zm44.2 127.2c-159.9 77.9-324.4 143.8-496.9 191-172.6 47.2-354 76.1-547.9 79.9-175.3 3.4-376.3-46-584.1-97.2l-63.8-15.6c-114.5-27.9-229.5-52.3-344.8-71.9-116-19.7-232.7-34.4-349.8-42.9-287.9-20.8-517 26.4-727.1 122.3-208.3 95.2-396.1 237.6-604.1 408.6-16.1 13.3-18.5 37.1-5.2 53.2s37.1 18.5 53.2 5.2c203.6-167.4 386.9-306.6 587.4-398.1 198.7-90.8 416.1-135.4 690.4-115.6 114.8 8.3 229.1 22.8 342.7 42 114.2 19.4 227.4 43.4 339.5 70.7l63.6 15.6c212.5 52.3 418 102.9 603.7 99.2 200.5-3.9 387.9-33.7 566.3-82.5 178.5-48.8 347.2-116.3 510.3-195.7 18.8-9.2 26.7-31.9 17.5-50.7-6.6-13.5-20.1-21.3-34.1-21.3-5.8 0-11.5 1.2-16.8 3.8zm29.7 130.5C-4322.5-84.9-4503-13.1-4679.7 35.9c-176.6 48.9-349.5 75.3-518.9 81.6C-5451.1 127-5725 60-5987.3-4.3c-195.1-47.7-384-94-555.8-107.3-289.1-22.3-508.6 12.5-710.5 97.4-200.5 84.5-381.4 217.7-595.4 393.4-16.1 13.3-18.5 37.1-5.2 53.3 13.3 16.1 37.1 18.5 53.2 5.2 208.9-171.6 384.8-301.3 576.7-382 190.4-80.2 399-112.8 675.5-91.5 166.4 12.8 352 58.2 543.7 105.2 267.2 65.4 546.3 133.7 809.2 123.8 175.3-6.6 354-33.8 536.3-84.3 182.1-50.5 367.7-124.3 556.8-224 18.5-9.7 25.6-32.6 15.8-51.2-6.8-12.9-19.9-20.3-33.5-20.3-6 0-12 1.4-17.7 4.4zm9 137.9c-172.4 86.4-345.2 169.4-523.8 231.5-177 61.5-359.9 102.5-554.3 105.7-99.9 1.7-204.9-9.8-314.4-29.9-110.4-20.3-225.5-49.3-344.5-82.6-153.7-43-308.4-81-460.9-107.1-153.5-26.3-305.5-40.7-452.9-36.2-150.3 4.5-286.5 30-411.1 72.2-124.4 42.2-237.5 101.2-341.9 172.9-54.6 37.5-103.3 74.2-149 110.5-46.6 37-90.4 73.5-133.9 109.9-16 13.4-18.2 37.3-4.7 53.4 13.4 16 37.3 18.2 53.4 4.7 43.5-36.4 87.1-72.8 132.4-108.8 46.2-36.6 93.9-72.7 144.6-107.5 98.3-67.5 205.4-123.3 323.5-163.3 117.9-40 246.8-64.1 388.8-68.4 141.6-4.3 288.7 9.7 438.1 35.3 150.5 25.8 302.6 63.2 453.5 105.3 120.9 33.8 238 63.4 351 84.1 114 20.9 223.8 32.8 329.2 31 203.6-3.4 394.1-46 578-109.9 182.1-63.3 357.6-147.6 532.7-235.4 18.7-9.3 26.3-32 16.9-50.7-6.6-13.3-20-20.9-33.8-20.9-5.7.3-11.5 1.5-16.9 4.2zm-23.8 158.4c-176.4 113.1-353.9 196.2-539.6 254.3-185.9 58.2-380.2 91.2-589.9 104.1-191.4 11.8-448.2-68-711.4-149.7-52.6-16.4-105.5-32.8-139.3-43-105.1-31.8-211.1-56.5-317.8-73.1-106.3-16.5-212.7-24.7-319.1-23.5-147.3 1.8-278.9 24.2-398.5 62.8-119.8 38.6-227.4 93.2-326.4 159.1-62.8 41.7-120.9 89.2-179 136.5-28.5 23.2-56.9 46.4-85.7 68.7-16.5 12.8-19.6 36.6-6.8 53.1s36.6 19.6 53.1 6.8c29.5-22.9 58.4-46.4 87.2-69.9 56.4-46 112.9-92 173.1-132 93.8-62.3 195.2-113.9 307.8-150.2 112.8-36.3 237-57.5 376.2-59.2 102.1-1.2 204.3 6.7 306.6 22.6 101.8 15.8 204.4 39.9 307.5 71 59 17.8 99.1 30.3 139 42.7 269.8 83.8 533.1 165.5 738 153 215.9-13.3 416.2-47.4 608-107.4 192.1-60.1 375.7-146 558-262.9 17.6-11.3 22.7-34.8 11.4-52.3-7.2-11.3-19.5-17.5-31.9-17.5-7.1 0-14.2 1.9-20.5 6zm-54.9 182.1c-147.8 94.7-304.7 172.3-472.1 230.5-167.6 58.2-345.6 97.2-535.4 114.6-20.8 1.9-36.1 20.3-34.3 41.1 1.9 20.8 20.3 36.1 41.1 34.3 196.3-18 380.4-58.2 553.5-118.5C-4481.9 538-4319.6 457.8-4167 360c17.6-11.3 22.7-34.7 11.4-52.3-7.2-11.3-19.4-17.4-31.9-17.4-7-.1-14.1 1.9-20.4 5.9zm-3416 355.8c-24.6 17.5-49 35-66 46.9-17.1 11.9-21.3 35.5-9.4 52.6s35.5 21.3 52.6 9.3c27.3-19.2 47-33.2 66.6-47.1 218.1-155.5 438-312.3 806.1-295.6 296.3 13.5 600.6 100.8 935.5 196.8l84.4 24.2c59.5 17 120 28.7 180.7 40.4 28.9 5.6 57.7 11.2 88.2 17.8 20.5 4.4 40.7-8.6 45.1-29.1 4.4-20.5-8.6-40.7-29.1-45-28.7-6.2-59.4-12.2-90-18.1-58.6-11.3-117.1-22.7-174.2-38.9l-84.3-24.2c-339-97.3-646.9-185.6-953-199.5-19.8-.9-39.3-1.3-58.4-1.3-358.8 0-577.6 156-794.8 310.8zm346.3-71.4c-131.3 53.9-241 129.8-341.6 215.6-15.9 13.6-17.7 37.5-4.1 53.4 13.6 15.9 37.5 17.7 53.4 4.1 95.2-81.2 198.4-152.8 321.1-203.1 122.6-50.3 265.3-79.8 439.8-77.1 120.9 1.9 236.5 14.1 348.6 34.2 112 20.1 221.1 48.2 329.1 82 65.4 20.5 122.3 39.4 178.4 58.1 110.3 36.8 217.7 72.5 325.8 100.4 20.2 5.2 40.8-7 46-27.3 5.2-20.2-7-40.8-27.3-46-105.5-27.1-211.7-62.6-320.8-98.9-61.3-20.5-123.5-41.2-179.5-58.7-110.1-34.4-222.1-63.3-338.3-84.1-116-20.8-235.6-33.4-360.8-35.3-7.9-.1-15.8-.2-23.5-.2-175.3 0-320.4 31.2-446.3 82.9zm57.7 125.1c-113.4 42.2-214.4 103.3-307.4 171.9-16.8 12.5-20.3 36.2-7.8 53 12.4 16.8 36.1 20.3 52.9 7.8 88-64.9 183-122.5 288.7-161.8 105-39 221.1-60.2 352.4-53.1 143.6 7.9 292.7 29.1 453.2 66 161.3 37 333.9 89.8 523.9 160.7 19.6 7.3 41.3-2.6 48.6-22.3 7.3-19.5-2.7-41.3-22.2-48.6-193.7-72.3-369.5-126-533.4-163.7-164.7-37.8-318-59.6-466.3-67.7-18.4-1-36.6-1.5-54.4-1.5-120.3 0-228.8 22.3-328.2 59.3zm194.8 101.9c-150 20.1-282.8 71.4-399.5 152.4-17.2 11.9-21.5 35.5-9.6 52.6 11.9 17.2 35.4 21.5 52.7 9.6 106.8-74.1 228.7-121.1 366.6-139.6 139.1-18.6 295-8.2 468.4 32.9 20.4 4.8 40.8-7.8 45.7-28.2 4.8-20.4-7.8-40.8-28.2-45.7-123.7-29.3-239.4-43.7-347.5-43.7-51.3 0-100.8 3.2-148.6 9.7zm30.4 147c-112.2 8.5-217.6 38.2-315.3 91.7-18.3 10-25.1 33-15.1 51.3 10 18.3 33 25.1 51.3 15.1 87.8-48 183-74.7 284.7-82.4 103-7.8 212.7 3.9 328.3 32.5 20.3 5 40.9-7.4 45.8-27.7 5-20.3-7.4-40.8-27.7-45.8-98.2-24.3-192.7-37.1-283.1-37.1-23.3-.2-46.3.7-68.9 2.4zm3.8 146.6c-75.6 3.3-148.7 17.8-219.3 44.6-19.6 7.4-29.5 29.2-22.1 48.8 7.4 19.6 29.2 29.5 48.8 22.1 63.1-23.9 128.4-36.9 195.9-39.8 67.9-2.9 138.3 4.4 210.9 21.2 20.4 4.7 40.7-8.1 45.4-28.5 4.7-20.4-8.1-40.7-28.5-45.4-67.4-15.6-133.6-23.7-198.2-23.7-11 0-22 .2-32.9.7zm-113 167.4c-75.1 13.9-149.7 40-223.7 77.1-18.7 9.3-26.2 32-16.9 50.7 9.3 18.7 32.1 26.2 50.7 16.9 67.5-33.9 135.4-57.7 203.5-70.3 67.3-12.5 135.3-14.1 203.8-3.7 20.7 3.1 40.1-11.2 43.1-31.9 3.1-20.7-11.1-40.1-31.9-43.2-33.7-5.1-67.4-7.6-101-7.6-42.5 0-85.1 4.1-127.6 12zm110.5 145.4c-71.8.3-140.3 10.1-205.8 28.8-65.5 18.7-128.3 46.3-188.5 82.4-18 10.7-23.8 34-13.1 51.9 10.7 18 34 23.7 51.9 13.1 54.2-32.4 111-57.4 170.4-74.4 59.4-17 121.1-25.8 185.3-26.1 20.9-.1 37.8-17.1 37.6-38 0-20.8-16.9-37.7-37.7-37.7 0-.1 0 0-.1 0zm-209.7 168.3c-21.7 7.9-40.1 19.4-57.1 32.4-16.5 12.8-19.6 36.6-6.8 53.1s36.6 19.6 53.1 6.8c11.4-8.8 23.4-16.3 36.7-21.2 12.7-4.7 27.3-7 44.8-5.8 20.9 1.4 38.9-14.4 40.4-35.3 1.4-20.8-14.4-38.9-35.3-40.3-4.8-.3-9.5-.5-14-.5-23 0-43.3 4-61.8 10.8z"/>
    <path d="M-3251 1061.4h-49.6l-150.6-351.1-153.3 351.1h-49.3l198-454.4h9.5z" class="st1"/>
    <path d="M-3251 1061.4h-49.6l-150.6-351.1-153.3 351.1h-49.3l198-454.4h9.5z" class="st2"/>
    <path d="M-2682.5 702.4l-78.5 165h155.8l-77.3-165zm5.5-96.3l211.8 454.7h-48.4l-71.5-149.9h-196.2l-70.8 149.9h-50.9l214.9-454.7h11.1z" class="st1"/>
    <path d="M-2682.5 702.4l-78.5 165h155.8l-77.3-165zm5.5-96.3l211.8 454.7h-48.4l-71.5-149.9h-196.2l-70.8 149.9h-50.9l214.9-454.7h11.1z" class="st2"/>
    <path d="M-2033.1 841.9v174.5h56.1c33.1 0 57.4-3.3 72.8-9.8 15.4-6.5 27.7-16.6 36.9-30.1 9.3-13.4 13.9-28.6 13.9-45.3 0-21.1-6.5-38.9-19.5-53.5-13-14.6-29.2-24.2-48.7-28.8-19.4-4.6-48.1-6.9-86.1-6.9l-25.4-.1zm-44.8 218.9V606.1h227.8v44.8h-183v145.3h21.4c56.6 0 97.7 5 123.4 14.9 25.6 9.9 45.8 25.7 60.5 47.2 14.8 21.6 22.2 45.5 22.2 71.9 0 34.8-13 65.2-39 91.4-26 26.2-62.1 39.2-108.6 39.2h-124.7z" class="st1"/>
    <path d="M-2033.1 841.9v174.5h56.1c33.1 0 57.4-3.3 72.8-9.8 15.4-6.5 27.7-16.6 36.9-30.1 9.3-13.4 13.9-28.6 13.9-45.3 0-21.1-6.5-38.9-19.5-53.5-13-14.6-29.2-24.2-48.7-28.8-19.4-4.6-48.1-6.9-86.1-6.9l-25.4-.1zm-44.8 218.9V606.1h227.8v44.8h-183v145.3h21.4c56.6 0 97.7 5 123.4 14.9 25.6 9.9 45.8 25.7 60.5 47.2 14.8 21.6 22.2 45.5 22.2 71.9 0 34.8-13 65.2-39 91.4-26 26.2-62.1 39.2-108.6 39.2h-124.7z" class="st2"/>
    <path d="M-1187.3 639.2c-33.6 0-65.4 8.8-95.5 26.2-30.1 17.5-53.6 41.1-70.4 70.8-16.8 29.7-25.1 62.8-25.1 99.2 0 54 18.6 99.6 55.9 136.7 37.3 37.3 82.3 55.8 135.1 55.8 35.1 0 67.8-8.6 97.8-25.8 30.1-17.2 53.4-40.5 70.2-70.1 16.8-29.5 25.2-62.5 25.2-98.9 0-36-8.4-68.5-25.2-97.8-16.8-29.2-40.3-52.6-70.8-70.1-30.5-17.2-63-26-97.2-26zm-1.9-44.7c68.7 0 126.2 23 172.5 69s69.5 102.6 69.5 169.8c0 66.5-23.1 122.8-69.3 169.3-46.2 46.4-102.5 69.6-169 69.6-67.4 0-124.3-23-170.7-69.2-46.5-46.1-69.7-102-69.7-167.6 0-43.5 10.6-84 31.6-121.4 21.1-37.4 49.9-66.7 86.5-87.8 36.5-21.2 76.1-31.7 118.6-31.7z" class="st1"/>
    <path d="M-1187.3 639.2c-33.6 0-65.4 8.8-95.5 26.2-30.1 17.5-53.6 41.1-70.4 70.8-16.8 29.7-25.1 62.8-25.1 99.2 0 54 18.6 99.6 55.9 136.7 37.3 37.3 82.3 55.8 135.1 55.8 35.1 0 67.8-8.6 97.8-25.8 30.1-17.2 53.4-40.5 70.2-70.1 16.8-29.5 25.2-62.5 25.2-98.9 0-36-8.4-68.5-25.2-97.8-16.8-29.2-40.3-52.6-70.8-70.1-30.5-17.2-63-26-97.2-26zm-1.9-44.7c68.7 0 126.2 23 172.5 69s69.5 102.6 69.5 169.8c0 66.5-23.1 122.8-69.3 169.3-46.2 46.4-102.5 69.6-169 69.6-67.4 0-124.3-23-170.7-69.2-46.5-46.1-69.7-102-69.7-167.6 0-43.5 10.6-84 31.6-121.4 21.1-37.4 49.9-66.7 86.5-87.8 36.5-21.2 76.1-31.7 118.6-31.7z" class="st2"/>
    <path d="M-497.8 650.2v154.6l77.3.9c30.8 0 53.5-2.8 67.8-8.4 14.4-5.6 25.8-14.8 34.1-27.6 8.2-12.8 12.4-26.8 12.4-42.2 0-15.5-4.2-29.6-12.4-42.3-8.3-12.7-19.2-21.7-32.7-27-13.5-5.3-35.6-8-66.2-8h-80.3zm-45.3-44.1h90.4c52.1 0 87.2 2.3 105.2 6.7 26.1 6.5 47.5 19.8 63.8 39.5 16.3 19.8 24.5 44.9 24.5 75.1 0 30.1-8 55-24.1 74.7-16 19.7-38.2 33-66.4 39.7-20.7 4.9-59.2 7.3-115.6 7.3h-32.5v211.6h-45.3V606.1z" class="st1"/>
    <path d="M-497.8 650.2v154.6l77.3.9c30.8 0 53.5-2.8 67.8-8.4 14.4-5.6 25.8-14.8 34.1-27.6 8.2-12.8 12.4-26.8 12.4-42.2 0-15.5-4.2-29.6-12.4-42.3-8.3-12.7-19.2-21.7-32.7-27-13.5-5.3-35.6-8-66.2-8h-80.3zm-45.3-44.1h90.4c52.1 0 87.2 2.3 105.2 6.7 26.1 6.5 47.5 19.8 63.8 39.5 16.3 19.8 24.5 44.9 24.5 75.1 0 30.1-8 55-24.1 74.7-16 19.7-38.2 33-66.4 39.7-20.7 4.9-59.2 7.3-115.6 7.3h-32.5v211.6h-45.3V606.1z" class="st2"/>
    <path d="M240.9 702.4l-78.5 165h155.8l-77.3-165zm5.6-96.3l211.8 454.7h-48.5l-71.5-149.9H142.1l-70.8 149.9H20.5l214.9-454.7h11.1z" class="st1"/>
    <path d="M240.9 702.4l-78.5 165h155.8l-77.3-165zm5.6-96.3l211.8 454.7h-48.5l-71.5-149.9H142.1l-70.8 149.9H20.5l214.9-454.7h11.1z" class="st2"/>
    <path d="M746 650.2v-44.1h249.6v44.1H893.8v410.6h-46.3V650.2z" class="st1"/>
    <path d="M746 650.2v-44.1h249.6v44.1H893.8v410.6h-46.3V650.2z" class="st2"/>
    <path d="M1591.5 639.2c-33.6 0-65.4 8.8-95.5 26.2-30.1 17.5-53.6 41.1-70.3 70.8-16.8 29.7-25.1 62.8-25.1 99.2 0 54 18.6 99.6 55.9 136.7 37.3 37.3 82.3 55.8 135.1 55.8 35.1 0 67.8-8.6 97.8-25.8 30-17.2 53.4-40.5 70.2-70.1 16.8-29.5 25.2-62.5 25.2-98.9 0-36-8.4-68.5-25.2-97.8-16.8-29.2-40.4-52.6-70.8-70.1-30.6-17.2-63-26-97.3-26zm-1.9-44.7c68.8 0 126.2 23 172.5 69s69.5 102.6 69.5 169.8c0 66.5-23.2 122.8-69.3 169.3-46.3 46.4-102.6 69.6-169 69.6-67.4 0-124.4-23-170.7-69.2-46.5-46.1-69.7-102-69.7-167.6 0-43.5 10.6-84 31.6-121.4 21.1-37.4 50-66.7 86.5-87.8 36.5-21.2 76.1-31.7 118.6-31.7z" class="st1"/>
    <path d="M1591.5 639.2c-33.6 0-65.4 8.8-95.5 26.2-30.1 17.5-53.6 41.1-70.3 70.8-16.8 29.7-25.1 62.8-25.1 99.2 0 54 18.6 99.6 55.9 136.7 37.3 37.3 82.3 55.8 135.1 55.8 35.1 0 67.8-8.6 97.8-25.8 30-17.2 53.4-40.5 70.2-70.1 16.8-29.5 25.2-62.5 25.2-98.9 0-36-8.4-68.5-25.2-97.8-16.8-29.2-40.4-52.6-70.8-70.1-30.6-17.2-63-26-97.3-26zm-1.9-44.7c68.8 0 126.2 23 172.5 69s69.5 102.6 69.5 169.8c0 66.5-23.2 122.8-69.3 169.3-46.3 46.4-102.6 69.6-169 69.6-67.4 0-124.4-23-170.7-69.2-46.5-46.1-69.7-102-69.7-167.6 0-43.5 10.6-84 31.6-121.4 21.1-37.4 50-66.7 86.5-87.8 36.5-21.2 76.1-31.7 118.6-31.7z" class="st2"/>
    <path d="M2281.1 650.2v154.6l77.3.9c30.8 0 53.5-2.8 67.8-8.4 14.5-5.6 25.8-14.8 34.1-27.6 8.2-12.8 12.4-26.8 12.4-42.2 0-15.5-4.2-29.6-12.4-42.3-8.3-12.7-19.2-21.7-32.7-27-13.5-5.3-35.5-8-66.2-8h-80.3zm-45.4-44.1h90.4c52.1 0 87.2 2.3 105.2 6.7 26.1 6.5 47.4 19.8 63.8 39.5 16.4 19.8 24.5 44.9 24.5 75.1 0 30.1-8.1 55-24.1 74.7-16 19.7-38.2 33-66.4 39.7-20.7 4.9-59.2 7.3-115.6 7.3H2281v211.6h-45.3V606.1z" class="st1"/>
    <path d="M2281.1 650.2v154.6l77.3.9c30.8 0 53.5-2.8 67.8-8.4 14.5-5.6 25.8-14.8 34.1-27.6 8.2-12.8 12.4-26.8 12.4-42.2 0-15.5-4.2-29.6-12.4-42.3-8.3-12.7-19.2-21.7-32.7-27-13.5-5.3-35.5-8-66.2-8h-80.3zm-45.4-44.1h90.4c52.1 0 87.2 2.3 105.2 6.7 26.1 6.5 47.4 19.8 63.8 39.5 16.4 19.8 24.5 44.9 24.5 75.1 0 30.1-8.1 55-24.1 74.7-16 19.7-38.2 33-66.4 39.7-20.7 4.9-59.2 7.3-115.6 7.3H2281v211.6h-45.3V606.1z" class="st2"/>
    <path d="M3276.6 1060.8h-47.2V712.2l-299.2 348.6h-10.4V606.1h45.3v354.4l301.1-354.4h10.4z" class="st1"/>
    <path d="M3276.6 1060.8h-47.2V712.2l-299.2 348.6h-10.4V606.1h45.3v354.4l301.1-354.4h10.4z" class="st2"/>
    <path d="M3815.1 650.6c-30.9 0-53.1 2.7-66.6 8.1-13.5 5.5-24.4 14.4-32.6 26.8-8.3 12.5-12.5 26.2-12.5 41.4 0 15.7 4.2 29.9 12.5 42.6 8.3 12.7 19.6 21.8 34 27.5 14.4 5.8 36.7 8.6 67 8.6l78.1-.6V650.6h-79.9zm125.4 410.2H3895V849.2h-26l-162.8 211.6h-56.5l163.4-211.6c-38 0-67.8-4.8-89.3-14.6-21.6-9.7-38.2-23.8-49.8-42.4-11.7-18.6-17.5-40.4-17.5-65.3 0-29.7 8.4-54.6 25.2-75 16.7-20.3 38.5-33.5 65.6-39.7 18.2-4.1 52.3-6.1 102.6-6.1h90.6v454.7z" class="st1"/>
    <path d="M3815.1 650.6c-30.9 0-53.1 2.7-66.6 8.1-13.5 5.5-24.4 14.4-32.6 26.8-8.3 12.5-12.5 26.2-12.5 41.4 0 15.7 4.2 29.9 12.5 42.6 8.3 12.7 19.6 21.8 34 27.5 14.4 5.8 36.7 8.6 67 8.6l78.1-.6V650.6h-79.9zm125.4 410.2H3895V849.2h-26l-162.8 211.6h-56.5l163.4-211.6c-38 0-67.8-4.8-89.3-14.6-21.6-9.7-38.2-23.8-49.8-42.4-11.7-18.6-17.5-40.4-17.5-65.3 0-29.7 8.4-54.6 25.2-75 16.7-20.3 38.5-33.5 65.6-39.7 18.2-4.1 52.3-6.1 102.6-6.1h90.6v454.7z" class="st2"/>
    <path d="M4798.2 1060.8l64.7-454.7h7.3l184.9 372.8 182.7-372.8h7.4l65.6 454.7h-45.1l-44.4-325.3-160.7 325.3H5049l-162.8-327.5-44.2 327.5z" class="st1"/>
    <path d="M4798.2 1060.8l64.7-454.7h7.3l184.9 372.8 182.7-372.8h7.4l65.6 454.7h-45.1l-44.4-325.3-160.7 325.3H5049l-162.8-327.5-44.2 327.5z" class="st2"/>
    <path d="M5928.6 639.2c-33.6 0-65.4 8.8-95.5 26.2-30.2 17.5-53.6 41.1-70.4 70.8-16.8 29.7-25.1 62.8-25.1 99.2 0 54 18.6 99.6 55.9 136.7 37.3 37.3 82.3 55.8 135.1 55.8 35.1 0 67.8-8.6 97.8-25.8 30.1-17.2 53.4-40.5 70.2-70.1 16.8-29.5 25.2-62.5 25.2-98.9 0-36-8.4-68.5-25.2-97.8-16.8-29.2-40.3-52.6-70.8-70.1-30.4-17.2-62.9-26-97.2-26zm-1.9-44.7c68.7 0 126.2 23 172.5 69s69.5 102.6 69.5 169.8c0 66.5-23.1 122.8-69.3 169.3-46.2 46.4-102.6 69.6-168.9 69.6-67.4 0-124.4-23-170.8-69.2-46.5-46.1-69.7-102-69.7-167.6 0-43.5 10.6-84 31.6-121.4 21.1-37.4 49.9-66.7 86.5-87.8 36.6-21.2 76.1-31.7 118.6-31.7z" class="st1"/>
    <path d="M5928.6 639.2c-33.6 0-65.4 8.8-95.5 26.2-30.2 17.5-53.6 41.1-70.4 70.8-16.8 29.7-25.1 62.8-25.1 99.2 0 54 18.6 99.6 55.9 136.7 37.3 37.3 82.3 55.8 135.1 55.8 35.1 0 67.8-8.6 97.8-25.8 30.1-17.2 53.4-40.5 70.2-70.1 16.8-29.5 25.2-62.5 25.2-98.9 0-36-8.4-68.5-25.2-97.8-16.8-29.2-40.3-52.6-70.8-70.1-30.4-17.2-62.9-26-97.2-26zm-1.9-44.7c68.7 0 126.2 23 172.5 69s69.5 102.6 69.5 169.8c0 66.5-23.1 122.8-69.3 169.3-46.2 46.4-102.6 69.6-168.9 69.6-67.4 0-124.4-23-170.8-69.2-46.5-46.1-69.7-102-69.7-167.6 0-43.5 10.6-84 31.6-121.4 21.1-37.4 49.9-66.7 86.5-87.8 36.6-21.2 76.1-31.7 118.6-31.7z" class="st2"/>
    <path d="M6582.3 650.2c32.3-37.2 71.9-55.8 118.6-55.8 37.2 0 68 10.8 92.3 32.5 24.3 21.7 36.5 49.5 36.5 83.4 0 48.6-22.7 83.4-68.1 104.2 59.9 18.6 89.8 58.9 89.8 120.8 0 41.1-13.4 74.2-40.2 99.3-26.8 25.2-63.4 37.7-110.1 37.7-32.7 0-61-6.8-84.9-20.2-24-13.5-46.6-37.1-67.8-70.8l35.3-20.8c20.8 31 40.5 50.9 58.8 59.6 18.4 8.7 37.5 13 57.4 13 28.8 0 53.3-8.3 73.6-25 20.3-16.7 30.3-41.2 30.3-73.7 0-16.9-3.4-31.8-10.3-44.5-6.8-12.7-16.7-22.9-29.3-30.8-12.7-7.9-24.6-12.8-35.9-14.7-11.3-1.9-30-2.9-56.1-2.9h-7.7v-40.1h15.1c67.4 0 101.1-27.3 101.1-81.9 0-25.4-7.6-45.5-23-60.6-15.3-15-34.7-22.5-58.2-22.5-30.6 0-59.3 13.9-86.1 41.7l-31.1-27.9z" class="st1"/>
    <path d="M6582.3 650.2c32.3-37.2 71.9-55.8 118.6-55.8 37.2 0 68 10.8 92.3 32.5 24.3 21.7 36.5 49.5 36.5 83.4 0 48.6-22.7 83.4-68.1 104.2 59.9 18.6 89.8 58.9 89.8 120.8 0 41.1-13.4 74.2-40.2 99.3-26.8 25.2-63.4 37.7-110.1 37.7-32.7 0-61-6.8-84.9-20.2-24-13.5-46.6-37.1-67.8-70.8l35.3-20.8c20.8 31 40.5 50.9 58.8 59.6 18.4 8.7 37.5 13 57.4 13 28.8 0 53.3-8.3 73.6-25 20.3-16.7 30.3-41.2 30.3-73.7 0-16.9-3.4-31.8-10.3-44.5-6.8-12.7-16.7-22.9-29.3-30.8-12.7-7.9-24.6-12.8-35.9-14.7-11.3-1.9-30-2.9-56.1-2.9h-7.7v-40.1h15.1c67.4 0 101.1-27.3 101.1-81.9 0-25.4-7.6-45.5-23-60.6-15.3-15-34.7-22.5-58.2-22.5-30.6 0-59.3 13.9-86.1 41.7l-31.1-27.9z" class="st2"/>
    <path d="M7299.1 1060.8h-45.4V606.1h227.8v44.8h-182.4z" class="st1"/>
    <path d="M7299.1 1060.8h-45.4V606.1h227.8v44.8h-182.4z" class="st2"/>
    <path d="M7972.4 702.4l-78.5 165h155.8l-77.3-165zm5.6-96.3l211.8 454.7h-48.4l-71.5-149.9h-196.2l-70.8 149.9H7752l214.9-454.7h11.1z" class="st1"/>
    <path d="M7972.4 702.4l-78.5 165h155.8l-77.3-165zm5.6-96.3l211.8 454.7h-48.4l-71.5-149.9h-196.2l-70.8 149.9H7752l214.9-454.7h11.1z" class="st2"/>
    <path d="M-5139.8-500.7c0 139.5-113.1 252.5-252.5 252.5-139.5 0-252.5-113.1-252.5-252.5 0-139.5 113-252.5 252.5-252.5 139.4 0 252.5 113 252.5 252.5z" class="st3"/>
    <path d="M-5471.8-367.5l-168.9 596h496.7l-168.9-596z" class="st3"/>
  </symbol>
  <use width="16407.3" height="3364.9" x="-8203.7" y="-1682.5" overflow="visible" transform="matrix(.02835 0 0 .02835 232.544 47.692)" xlink:href="#symbol_logo"/>
</svg>
